# xmcd
#
# Track frame offsets:
#	150
#	16347
#	38310
#	56767
#	76837
#	95057
#	115665
#	127885
#	150177
#	168627
#	185987
#	200150
#	220345
#
# Disc length: 3165 seconds
#
# Revision: 0
# Processed by: cddbd v1.4PL0 Copyright (c) Steve Scherf et al.
# Submitted via: audiograbber 1.80
#
DISCID=a90c5b0d
DTITLE=Yah Yah  - ypsilon
DYEAR=1900
DGENRE=
TTITLE0=Gut` Nacht
TTITLE1=An manchen Tagen
TTITLE2=Alte Zeiten
TTITLE3=Ganz nah
TTITLE4=Geradeaus
TTITLE5=Melancholie
TTITLE6=Das Letzte
TTITLE7=Mama
TTITLE8=Immer tiefer
TTITLE9=Mach keinen Fehler
TTITLE10=Häng an Dir
TTITLE11=Tiefe
TTITLE12=Alles wird gut
EXTD=
EXTT0=
EXTT1=
EXTT2=
EXTT3=
EXTT4=
EXTT5=
EXTT6=
EXTT7=
EXTT8=
EXTT9=
EXTT10=
EXTT11=
EXTT12=
PLAYORDER=
